<svg width="100" height="100" viewBox="0 0 100 100" fill="none" xmlns="http://www.w3.org/2000/svg">
  <!-- Cup body -->
  <path d="M25 30H75V70C75 82.5 62.5 90 50 90C37.5 90 25 82.5 25 70V30Z" fill="#6F4E37" stroke="#3C2A21" stroke-width="3"/>
  
  <!-- Cup rim -->
  <path d="M20 30H80V35C80 37.5 77.5 40 75 40H25C22.5 40 20 37.5 20 35V30Z" fill="#5C3D2B" stroke="#3C2A21" stroke-width="2"/>
  
  <!-- Handle -->
  <path d="M75 45C85 45 85 55 85 60C85 65 80 70 75 65" stroke="#3C2A21" stroke-width="4" stroke-linecap="round"/>
  
  <!-- Coffee surface -->
  <ellipse cx="50" cy="40" rx="20" ry="7" fill="#A47551"/>
  
  <!-- Steam (will be animated with CSS) -->
  <path d="M40 25C40 20 45 20 45 15M50 25C50 20 55 15 50 10M60 25C60 20 55 20 55 15" stroke="#D9BC9A" stroke-width="3" stroke-linecap="round" opacity="0.7"/>
</svg> 